<svg xmlns="http://www.w3.org/2000/svg" xmlns:xlink="http://www.w3.org/1999/xlink" width="95" height="95" viewBox="0 0 95 95"><defs><linearGradient id="linear-gradient" x1="0.5" x2="0.5" y2="1" gradientUnits="objectBoundingBox"><stop offset="0" stop-color="#ffbd3f"></stop><stop offset="1" stop-color="#ff833f"></stop></linearGradient><linearGradient id="linear-gradient-2" y1="0.5" x2="1" y2="0.5" gradientUnits="objectBoundingBox"><stop offset="0" stop-color="#0896f2"></stop><stop offset="1" stop-color="#0169e2"></stop></linearGradient><linearGradient id="linear-gradient-3" x1="0.5" y1="0.175" x2="0.5" y2="1.082" gradientUnits="objectBoundingBox"><stop offset="0" stop-color="#cae7ff"></stop><stop offset="1" stop-color="#f5f8ff"></stop></linearGradient></defs><g id="Group_124127" data-name="Group 124127" transform="translate(-741 -291)"><rect id="Rectangle_15189" data-name="Rectangle 15189" width="95" height="95" rx="29" transform="translate(741 291)" fill="url(#linear-gradient)"></rect><g id="Group_124114" data-name="Group 124114" transform="translate(-55.325 -10.169)"><path id="path29535" d="M35.35,6.88A28.47,28.47,0,1,1,6.88,35.35,28.47,28.47,0,0,1,35.35,6.88Z" transform="translate(808.475 313.319)" fill="url(#linear-gradient-2)"></path><path id="path29577" d="M31.014,9.037,31,9.789l1.488.033.033-.752Zm-1.792.111-1.5.188.105.741,1.477-.188Zm5.581.16-.122.736,1.455.277.16-.73Zm-9.331.52-1.438.448.232.714,1.422-.442ZM38.5,10.2l-.249.7,1.4.514.265-.7Zm-16.6.94-1.339.686.348.664,1.327-.68Zm20.095.575-.365.653,1.278.747.4-.636ZM18.608,13.047l-1.206.907.454.592,1.195-.891Zm26.566.758-.465.586,1.128.951.5-.559ZM15.682,15.486l-1.04,1.09.548.509,1.029-1.079Zm32.274.913-.559.5.957,1.128.586-.465ZM13.21,18.379l-.841,1.25.625.409.83-1.233Zm37.053,1.045-.636.4.752,1.272.653-.36Zm-39,2.224-.619,1.372.686.3.614-1.361ZM52.022,22.8l-.691.288.52,1.383.708-.249ZM9.9,25.2l-.371,1.46.73.177.365-1.438Zm43.287,1.228-.736.16.282,1.449.736-.116ZM9.161,28.938l-.116,1.5.752.05L9.908,29ZM53.709,30.2l-.752.028L53,31.715l.747-.011ZM9.82,32.688l-.747.044.138,1.516.747-.088ZM52.852,33.9l-.227,1.477.741.122L53.593,34ZM10.345,36.328l-.73.171.4,1.466.719-.216Zm41.777,1.178-.476,1.41.708.249.481-1.427ZM11.484,39.823l-.686.293L11.44,41.5l.669-.337Zm39.3,1.112-.708,1.311.658.365.714-1.327ZM13.2,43.076l-.625.409.863,1.245.6-.442Zm35.676,1.007-.918,1.173.586.47.929-1.184Zm-33.43,1.9-.548.509,1.062,1.084.52-.537Zm31.024.879-1.1,1.007.5.559,1.112-1.012ZM18.155,48.48l-.454.592,1.228.891.426-.614Zm25.476.725-1.256.8.4.636,1.272-.813Zm-22.4,1.278-.332.669,1.355.658.315-.68Zm19.2.542-1.372.581.282.691,1.394-.586Zm-15.819.907-.216.719,1.449.415.194-.725Zm12.362.343-1.449.337.16.73L37.155,53Zm-8.772.5-.105.741,1.51.166.061-.747Zm5.155.149L31.873,53l.028.752,1.5-.083Z" transform="translate(812.441 317.271)" fill="#dbeeff"></path><path id="path6315" d="M34.27,38.1c-2.317,1.7-5.537-2.277-8.411-2.263s-6.055,4.023-8.388,2.345.454-5.969-.447-8.7-5.7-4.515-4.822-7.253,5.817-1.412,8.134-3.113,2.534-6.813,5.408-6.828,3.141,5.1,5.475,6.774,7.263.3,8.165,3.033-3.876,4.562-4.751,7.3,1.955,7-.362,8.7Z" transform="translate(818.03 323.229)" fill="url(#linear-gradient-3)"></path></g></g></svg>