<svg xmlns="http://www.w3.org/2000/svg" xmlns:xlink="http://www.w3.org/1999/xlink" width="95" height="95" viewBox="0 0 95 95"><defs><linearGradient id="linear-gradient" x1="0.5" x2="0.5" y2="1" gradientUnits="objectBoundingBox"><stop offset="0" stop-color="#09a1f5"></stop><stop offset="1" stop-color="#0062e0"></stop></linearGradient><linearGradient id="linear-gradient-2" x1="0.5" y1="-0.075" x2="0.5" y2="1" gradientUnits="objectBoundingBox"><stop offset="0" stop-color="#f5f8ff"></stop><stop offset="1" stop-color="#79c6ff"></stop></linearGradient><linearGradient id="linear-gradient-3" x1="0.5" y1="-0.143" x2="0.5" y2="1.173" gradientUnits="objectBoundingBox"><stop offset="0" stop-color="#0cc8ef"></stop><stop offset="1" stop-color="#047afa"></stop></linearGradient><linearGradient id="linear-gradient-4" x1="0.746" y1="0.36" x2="0.062" y2="1.094" gradientUnits="objectBoundingBox"><stop offset="0" stop-color="#ff623f"></stop><stop offset="1" stop-color="#ffbe3f"></stop></linearGradient><linearGradient id="linear-gradient-5" x1="-2.282" y1="0" x2="-2.965" y2="0.734" xlink:href="#linear-gradient-4"></linearGradient><linearGradient id="linear-gradient-6" x1="0.512" y1="0.856" x2="0.512" y2="-0.075" xlink:href="#linear-gradient-4"></linearGradient><linearGradient id="linear-gradient-7" x1="0.444" y1="0.149" x2="0.444" y2="1.003" gradientUnits="objectBoundingBox"><stop offset="0" stop-color="#f6f600"></stop><stop offset="1" stop-color="#f69134"></stop></linearGradient><linearGradient id="linear-gradient-8" x1="0.498" y1="-0.02" x2="0.498" y2="0.95" xlink:href="#linear-gradient-2"></linearGradient><linearGradient id="linear-gradient-9" x1="0.498" y1="-0.02" x2="0.498" y2="0.95" xlink:href="#linear-gradient-2"></linearGradient><linearGradient id="linear-gradient-10" x1="0.498" y1="-0.02" x2="0.498" y2="0.95" xlink:href="#linear-gradient-2"></linearGradient></defs><g id="Group_124128" data-name="Group 124128" transform="translate(-1304 -291)"><rect id="Rectangle_15188" data-name="Rectangle 15188" width="95" height="95" rx="29" transform="translate(1304 291)" fill="url(#linear-gradient)"></rect><g id="layer1" transform="translate(1323.698 309.689)"><path id="path4344-7-2" d="M26.885,1.058c-14.1,0-13.364,7.185-16.457,7.185-2.306,0-6.73-2.435-6.73,5.047V25.046c0,12.4,15.55,31.635,23.187,31.635S50.072,37.445,50.072,25.046V13.291c0-7.482-4.424-5.047-6.73-5.047-3.093,0-2.36-7.185-16.457-7.185Z" transform="translate(0.916 -1.058)" fill="url(#linear-gradient-2)"></path><path id="path61546" d="M24.327,5.139c-10.473,0-9.928,5.338-12.227,5.338-1.713,0-5-1.809-5,3.75V22.96c0,9.212,11.553,23.5,17.226,23.5s17.226-14.291,17.226-23.5V14.227c0-5.558-3.286-3.75-5-3.75-2.3,0-1.753-5.338-12.227-5.338Z" transform="translate(3.475 2.01)" fill="url(#linear-gradient-3)"></path><path id="path4304" d="M12.884,25.465l1.827,9.069s1.048,3.786-2.186,3.786H4.917c-1.659,0-3.853-2.082-3.853-6.266s11.82-6.589,11.82-6.589Z" transform="translate(-1.064 17.293)" fill="url(#linear-gradient-4)"></path><path id="path4320" d="M26.909,25.465l-1.827,9.069s-1.048,3.786,2.186,3.786h7.608c1.659,0,3.853-2.082,3.853-6.266S26.909,25.465,26.909,25.465Z" transform="translate(16.874 17.293)" fill="url(#linear-gradient-5)"></path><path id="rect4293" d="M6.027,23.37a121.579,121.579,0,0,1,41.717,0,2.479,2.479,0,0,1,2.318,2.318v9.049a1.782,1.782,0,0,1-2.318,1.744,103.184,103.184,0,0,0-41.717,0A1.845,1.845,0,0,1,3.71,34.634V25.688A2.481,2.481,0,0,1,6.027,23.37Z" transform="translate(0.925 14.362)" fill="url(#linear-gradient-6)"></path><path id="path4142-1-4" d="M24.6,24.236c-1.278.939-3.055-1.256-4.641-1.248s-3.341,2.22-4.628,1.294.251-3.294-.247-4.8-3.144-2.491-2.661-4,3.21-.779,4.488-1.718S18.313,10,19.9,9.994s1.733,2.812,3.021,3.738,4.008.168,4.505,1.674-2.139,2.517-2.621,4.028,1.079,3.863-.2,4.8Z" transform="translate(7.436 5.661)" fill="url(#linear-gradient-7)"></path><path id="path61553" d="M18.576,23.542,20.031,25a.893.893,0,0,1,0,1.266l-1.456,1.456a.893.893,0,0,1-1.266,0l-1.456-1.456a.893.893,0,0,1,0-1.266l1.456-1.456A.893.893,0,0,1,18.576,23.542Z" transform="translate(9.859 15.649)" fill="url(#linear-gradient-8)"></path><path id="path61555" d="M11.515,24.137l1.456,1.456a.893.893,0,0,1,0,1.266l-1.456,1.456a.893.893,0,0,1-1.266,0L8.793,26.859a.893.893,0,0,1,0-1.266l1.456-1.456A.893.893,0,0,1,11.515,24.137Z" transform="translate(4.55 16.097)" fill="url(#linear-gradient-9)"></path><path id="path61557" d="M25.637,24.137l1.456,1.456a.893.893,0,0,1,0,1.266l-1.456,1.456a.893.893,0,0,1-1.266,0l-1.456-1.456a.893.893,0,0,1,0-1.266l1.456-1.456A.893.893,0,0,1,25.637,24.137Z" transform="translate(15.168 16.097)" fill="url(#linear-gradient-10)"></path><path id="path61573" d="M26.5,27.327l-.233,0-.462,0-.233,0,0,.465.233,0,.465,0,.233,0Zm1.4,0,0,.465h.233l.315,0,.147,0,.233,0,.007-.465-.229,0-.154,0h-.315Zm-3.723.041-.233.007-.462.018-.233.007.018.465.229-.007.465-.018.233-.007Zm6.053,0-.018.462.233.011.462.014.233.011.018-.465-.233-.007-.465-.018Zm-8.376.092-.229.014-.137,0-.328.02-.233.014.027.462.229-.014.328-.018.133-.007.233-.011Zm10.7,0-.027.462.233.014.383.02.079,0,.233.014.027-.462-.229-.014-.082-.007-.387-.02ZM19.533,27.6l-.233.018-.2.014-.27.02-.229.02.034.462.233-.018.267-.024.2-.014.229-.014Zm15.339.011-.034.462.233.018h.014l.445.038.233.021.038-.462-.229-.02-.448-.038h-.018Zm-17.659.181-.229.02-.116.011-.349.034-.229.024.044.462.233-.024.346-.034.113-.011.233-.02Zm19.979.02-.048.462.229.024.462.051.233.024.048-.462-.233-.024-.462-.051ZM14.9,28.032l-.229.027-.462.051-.233.027.055.462.229-.027.462-.055.229-.024Zm24.6.044-.058.462.233.027.4.051.058.007.233.034.062-.462-.229-.031-.062-.011-.4-.048Zm-26.911.243-.229.031-.459.065-.233.031.065.462.229-.034.462-.062.229-.034Zm29.218.079-.069.459.229.034.14.02.315.051.229.038.075-.458L42.5,28.5l-.318-.051-.144-.02Zm-31.517.26-.229.038-.459.075-.229.038.072.459.229-.038.459-.075.229-.038Zm33.816.12-.085.455.226.044.455.085.229.041.085-.455-.226-.044-.459-.085ZM8,29.051l-.229.044-.455.089-.226.044.085.455L7.4,29.64l.455-.089.229-.041Zm38.394.171-.1.455.226.048.455.1.226.048.1-.455-.226-.048-.455-.1Zm-40.677.294-.226.051-.212.048-.243.058-.226.055.109.452.226-.055.24-.058.209-.044.226-.051Z" transform="translate(1.75 18.693)" fill="#e53b38"></path></g></g></svg>