<svg xmlns="http://www.w3.org/2000/svg" xmlns:xlink="http://www.w3.org/1999/xlink" width="95" height="95" viewBox="0 0 95 95"><defs><linearGradient id="linear-gradient" x1="0.5" x2="0.5" y2="1" gradientUnits="objectBoundingBox"><stop offset="0" stop-color="#d01b46"></stop><stop offset="1" stop-color="#f24155"></stop></linearGradient><linearGradient id="linear-gradient-2" x1="0.5" y1="0.042" x2="0.5" y2="1" gradientUnits="objectBoundingBox"><stop offset="0" stop-color="#ff7e3f"></stop><stop offset="1" stop-color="#ffbe3f"></stop></linearGradient><linearGradient id="linear-gradient-3" x1="0.02" y1="0.5" x2="0.98" y2="0.5" gradientUnits="objectBoundingBox"><stop offset="0" stop-color="#f5f8ff"></stop><stop offset="1" stop-color="#a0c9ff"></stop></linearGradient><linearGradient id="linear-gradient-4" x1="0.5" y1="1.11" x2="0.5" y2="0.065" gradientUnits="objectBoundingBox"><stop offset="0" stop-color="#0cc8ef"></stop><stop offset="1" stop-color="#047afa"></stop></linearGradient></defs><g id="Group_124187" data-name="Group 124187" transform="translate(-183 -290)"><rect id="Rectangle_15187" data-name="Rectangle 15187" width="95" height="95" rx="29" transform="translate(183 290)" fill="url(#linear-gradient)"></rect><g id="layer1" transform="translate(204.013 309.691)"><path id="path14492" d="M44.671,6.388c-.946-.689-7.888.245-9-.118s-6.169-5.21-7.34-5.211-6.238,4.835-7.351,5.2-8.053-.588-9,.1-2.2,7.578-2.893,8.524-6.861,4.258-7.224,5.37,2.67,7.426,2.669,8.6S1.483,36.32,1.844,37.434s6.526,4.438,7.212,5.386,1.929,7.841,2.875,8.53,7.888-.245,9,.118,6.169,5.21,7.34,5.211,6.238-4.835,7.351-5.2,8.053.588,9-.1,2.2-7.578,2.893-8.524,6.861-4.258,7.224-5.37-2.67-7.426-2.669-8.6,3.048-7.477,2.688-8.591-6.526-4.438-7.212-5.386-1.929-7.841-2.875-8.53Z" transform="translate(-1.814 -1.059)" fill="url(#linear-gradient-2)"></path><path id="path14473" d="M24.9,6.671C14.648,6.671,6.337,14.72,6.337,24.65S14.648,42.629,24.9,42.629,43.464,34.579,43.464,24.65,35.153,6.671,24.9,6.671Z" transform="translate(1.587 3.159)" fill="url(#linear-gradient-3)"></path><path id="path14484" d="M29.991,10.355c-2.085-1.531-4.983,2.049-7.569,2.036s-5.449-3.621-7.549-2.11.409,5.372-.4,7.828-5.127,4.063-4.34,6.527,5.235,1.271,7.321,2.8,2.28,6.132,4.867,6.145,2.827-4.586,4.927-6.1,6.536-.274,7.348-2.73-3.488-4.106-4.276-6.57,1.76-6.3-.326-7.832Z" transform="translate(4.367 6.53)" fill="url(#linear-gradient-4)"></path><path id="path14511" d="M25.769,46.321l.007-.465.92,0,.007.462Zm-1.406-.062-.927-.092.051-.459.917.089Zm3.75-.031-.051-.462.917-.11.062.462Zm-6.067-.27-.917-.188.1-.452.9.181Zm8.38-.075-.1-.455.9-.2.106.452ZM19.764,45.41l-.886-.291.151-.438.876.284ZM32.7,45.294l-.151-.438.869-.3.161.435Zm-15.134-.677-.852-.38.192-.421.842.373Zm17.317-.157-.192-.421.835-.393.2.417ZM15.46,43.587l-.8-.472.24-.4.794.469Zm21.508-.192-.24-.4.784-.486.25.393ZM13.475,42.338l-.742-.561.284-.366.736.554Zm25.447-.233-.277-.373.729-.561.287.366ZM11.651,40.873l-.681-.636.318-.335.674.626Zm29.074-.263-.318-.339.66-.64.328.328ZM9.992,39.217l-.606-.708.359-.3.6.7Zm32.362-.294-.359-.3.585-.712.363.287ZM8.531,37.387l-.52-.777.39-.25.513.763Zm35.243-.322-.383-.26.5-.773.39.253ZM7.292,35.4l-.435-.828.414-.212.428.818Zm37.69-.349-.414-.212.411-.825.417.2Zm-38.7-1.769-.332-.873.438-.157.325.859Zm39.664-.366-.435-.157.308-.869.438.147ZM5.527,31.063,5.3,30.157l.452-.1.219.9Zm41.128-.376-.452-.113.209-.9.455.1ZM5.044,28.774l-.12-.927.459-.055.12.914ZM47.1,28.381l-.459-.051.1-.917.462.041ZM4.825,26.437,4.818,25.5l.465.007,0,.92Zm42.439-.39L46.8,26.04l0-.92.462,0ZM5.345,24.138,4.887,24.1l.1-.927.462.055Zm41.361-.38-.12-.914.458-.065.12.924ZM5.664,21.873l-.452-.1.209-.91.452.113ZM46.337,21.5l-.219-.9.452-.113.219.907ZM6.252,19.659l-.438-.147.311-.879.435.157ZM45.711,19.3l-.325-.862.431-.168.328.873ZM7.09,17.531l-.417-.2.414-.835.414.212Zm37.741-.346-.428-.818.407-.222.431.828ZM8.168,15.512l-.387-.25.5-.78.39.25Zm35.537-.325-.513-.766.383-.26.52.773ZM9.482,13.63l-.363-.287.589-.722.356.3Zm32.882-.3-.6-.7.349-.3.6.708ZM10.991,11.909l-.328-.328.671-.65.318.339Zm29.833-.27-.674-.63.311-.342.681.633ZM12.681,10.366,12.394,10l.739-.568.277.373Zm26.415-.24s-.344-.264-.736-.554l.277-.373.746.561ZM14.539,9.021l-.25-.39.794-.493.24.4Zm22.682-.205-.794-.469.233-.4.8.472ZM16.527,7.885l-.2-.417.845-.4.188.421Zm18.689-.171-.842-.373.178-.428.855.38ZM18.632,6.975l-.161-.435.883-.308.147.438Zm14.46-.13-.876-.287.14-.441.886.291ZM20.818,6.3l-.106-.452.91-.205.1.452ZM30.895,6.2l-.9-.185.086-.455.914.185ZM23.07,5.859,23.008,5.4l.927-.109.051.458Zm5.567-.048-.917-.092.038-.462.931.092Zm-3.285-.147L25.345,5.2l1.006,0,0,.462Z" transform="translate(0.445 2.053)" fill="#ce2a32"></path></g></g></svg>