<svg xmlns="http://www.w3.org/2000/svg" xmlns:xlink="http://www.w3.org/1999/xlink" width="95" height="95" viewBox="0 0 95 95"><defs><linearGradient id="linear-gradient" x1="0.5" x2="0.5" y2="1" gradientUnits="objectBoundingBox"><stop offset="0" stop-color="#d01b46"></stop><stop offset="1" stop-color="#f24155"></stop></linearGradient><linearGradient id="linear-gradient-2" x1="0.451" y1="1.185" x2="0.451" y2="0.611" gradientUnits="objectBoundingBox"><stop offset="0" stop-color="#9bd2ff"></stop><stop offset="1" stop-color="#eef6ff"></stop></linearGradient><linearGradient id="linear-gradient-3" x1="1.023" y1="0.079" x2="0.022" y2="0.99" gradientUnits="objectBoundingBox"><stop offset="0" stop-color="#ff7e3f"></stop><stop offset="1" stop-color="#ffbe3f"></stop></linearGradient><linearGradient id="linear-gradient-4" x1="0.953" y1="0.269" x2="-0.077" y2="0.572" xlink:href="#linear-gradient-3"></linearGradient><linearGradient id="linear-gradient-5" x1="1.041" y1="0.651" x2="0.154" y2="0.31" xlink:href="#linear-gradient-3"></linearGradient><linearGradient id="linear-gradient-6" x1="0.947" y1="0.819" x2="-0.001" y2="0.003" xlink:href="#linear-gradient-3"></linearGradient><linearGradient id="linear-gradient-7" x1="0.884" y1="0.933" x2="0.111" y2="-0.069" xlink:href="#linear-gradient-3"></linearGradient><linearGradient id="linear-gradient-8" x1="0.816" y1="0.945" x2="0.173" y2="0" xlink:href="#linear-gradient-3"></linearGradient><linearGradient id="linear-gradient-9" x1="0.441" y1="0.996" x2="0.609" y2="-0.039" xlink:href="#linear-gradient-3"></linearGradient><linearGradient id="linear-gradient-10" x1="0" y1="0.5" x2="1" y2="0.5" xlink:href="#linear-gradient-3"></linearGradient><linearGradient id="linear-gradient-11" x1="-0.025" y1="0.079" x2="-1.026" y2="0.99" xlink:href="#linear-gradient-3"></linearGradient><linearGradient id="linear-gradient-12" x1="-1.949" y1="0.269" x2="-2.979" y2="0.572" xlink:href="#linear-gradient-3"></linearGradient><linearGradient id="linear-gradient-13" x1="-3.252" y1="0.651" x2="-4.138" y2="0.31" xlink:href="#linear-gradient-3"></linearGradient><linearGradient id="linear-gradient-14" x1="-3.794" y1="0.819" x2="-4.742" y2="0.003" xlink:href="#linear-gradient-3"></linearGradient><linearGradient id="linear-gradient-15" x1="-5.213" y1="0.933" x2="-5.986" y2="-0.069" xlink:href="#linear-gradient-3"></linearGradient><linearGradient id="linear-gradient-16" x1="-6.122" y1="0.945" x2="-6.766" y2="0" xlink:href="#linear-gradient-3"></linearGradient><linearGradient id="linear-gradient-17" x1="-7.223" y1="0.996" x2="-7.055" y2="-0.039" xlink:href="#linear-gradient-3"></linearGradient><linearGradient id="linear-gradient-18" x1="-2.538" y1="0.5" x2="-1.538" y2="0.5" xlink:href="#linear-gradient-3"></linearGradient></defs><g id="Group_124126" data-name="Group 124126" transform="translate(-183 -291)"><rect id="Rectangle_15190" data-name="Rectangle 15190" width="95" height="95" rx="29" transform="translate(183 291)" fill="url(#linear-gradient)"></rect><g id="layer1" transform="translate(202.68 312.924)"><path id="path4289" d="M14.191,34.532c2.449,1.8,5.851-2.406,8.889-2.391s6.4,4.252,8.865,2.478-.48-6.309.473-9.193,6.021-4.772,5.1-7.665-6.148-1.493-8.6-3.29S26.24,7.269,23.2,7.254s-3.32,5.386-5.786,7.159-7.676.321-8.629,3.206,4.1,4.822,5.021,7.715-2.066,7.4.382,9.2Z" transform="translate(4.657 1.36)" fill="url(#linear-gradient-2)"></path><path id="path4509" d="M15.877,27.326c3.357-1.155,5.141-.9,5.866,1.213S20.337,33.3,16.98,34.451s-6.459.983-6.94-.415,2.48-5.555,5.837-6.709Z" transform="translate(5.65 15.94)" fill="url(#linear-gradient-3)"></path><path id="path4512" d="M10.962,24.959c3.168-.094,4.62.6,4.68,2.59s-2.461,3.682-5.629,3.777-5.767-.875-5.807-2.194,3.588-4.078,6.756-4.173Z" transform="translate(1.302 14.665)" fill="url(#linear-gradient-4)"></path><path id="path4514" d="M8.245,20.907c2.724.66,3.8,1.59,3.386,3.3s-2.96,2.566-5.684,1.906-4.715-2.094-4.44-3.229,4.013-2.64,6.738-1.98Z" transform="translate(-0.747 11.503)" fill="url(#linear-gradient-5)"></path><path id="path4516" d="M8.227,16.565c2.357,1.517,3.07,2.749,2.116,4.231s-3.638,1.453-5.995-.064S.581,17.208,1.213,16.226s4.657-1.178,7.014.339Z" transform="translate(-1.062 7.528)" fill="url(#linear-gradient-6)"></path><path id="path4518" d="M7.91,12.57c1.579,1.807,1.873,2.99.737,3.983s-3.338.332-4.917-1.475-2.263-3.794-1.51-4.452,4.111.136,5.69,1.944Z" transform="translate(-0.422 3.723)" fill="url(#linear-gradient-7)"></path><path id="path4520" d="M9.322,9.292c.728,2.287.526,3.489-.912,3.947S5.216,12.213,4.488,9.926s-.563-4.382.39-4.685S8.594,7,9.322,9.292Z" transform="translate(1.174 -0.176)" fill="url(#linear-gradient-8)"></path><path id="path4522" d="M11.439,7.362c-.417,1.795-1.022,2.508-2.15,2.246S7.584,7.68,8,5.885,9.348,2.773,10.1,2.946s1.76,2.621,1.343,4.416Z" transform="translate(4.053 -1.891)" fill="url(#linear-gradient-9)"></path><path id="path4524" d="M14.979,6.877C13.515,8,12.594,8.161,11.891,7.241s-.086-2.573,1.378-3.692,3.02-1.542,3.486-.932-.312,3.142-1.776,4.261Z" transform="translate(6.862 -2.337)" fill="url(#linear-gradient-10)"></path><path id="path4665" d="M23.113,27.326c-3.357-1.155-5.141-.9-5.866,1.213s1.407,4.757,4.764,5.911,6.459.983,6.94-.415-2.48-5.555-5.837-6.709Z" transform="translate(11 15.94)" fill="url(#linear-gradient-11)"></path><path id="path4667" d="M27.831,24.959c-3.168-.094-4.62.6-4.68,2.59s2.461,3.682,5.629,3.777,5.767-.875,5.807-2.194S31,25.053,27.831,24.959Z" transform="translate(15.546 14.665)" fill="url(#linear-gradient-12)"></path><path id="path4669" d="M30.032,20.907c-2.724.66-3.8,1.59-3.386,3.3s2.96,2.566,5.684,1.906,4.715-2.094,4.44-3.229-4.013-2.64-6.738-1.98Z" transform="translate(18.11 11.503)" fill="url(#linear-gradient-13)"></path><path id="path4671" d="M29.816,16.565c-2.357,1.517-3.07,2.749-2.116,4.231s3.638,1.453,5.995-.064,3.767-3.525,3.136-4.506-4.657-1.178-7.014.339Z" transform="translate(18.659 7.528)" fill="url(#linear-gradient-14)"></path><path id="path4673" d="M29.159,12.57c-1.579,1.807-1.873,2.99-.737,3.983s3.338.332,4.917-1.475,2.263-3.794,1.51-4.452-4.111.136-5.69,1.944Z" transform="translate(18.994 3.723)" fill="url(#linear-gradient-15)"></path><path id="path4675" d="M27.007,9.292c-.728,2.287-.526,3.489.912,3.947s3.193-1.026,3.921-3.313.563-4.382-.39-4.685S27.735,7,27.007,9.292Z" transform="translate(18.137 -0.176)" fill="url(#linear-gradient-16)"></path><path id="path4677" d="M24.021,7.362c.417,1.795,1.022,2.508,2.15,2.246s1.7-1.929,1.288-3.724-1.347-3.112-2.094-2.938S23.6,5.568,24.021,7.362Z" transform="translate(16.127 -1.891)" fill="url(#linear-gradient-17)"></path><path id="path4679" d="M21.175,6.877C22.639,8,23.56,8.161,24.263,7.241s.086-2.573-1.378-3.692-3.02-1.542-3.486-.932.312,3.142,1.776,4.261Z" transform="translate(12.624 -2.337)" fill="url(#linear-gradient-18)"></path></g></g></svg>