<svg xmlns="http://www.w3.org/2000/svg" width="196" height="196" viewBox="0 0 196 196" version="1.1"><path d="M 59.667 46.667 C 58.399 47.935, 59.002 49.243, 60.342 48.131 C 61.080 47.519, 62.052 47.351, 62.502 47.759 C 62.952 48.166, 62.997 47.938, 62.601 47.250 C 61.806 45.869, 60.687 45.646, 59.667 46.667 M 94.698 46.636 C 94.314 47.019, 94 52.193, 94 58.131 C 94 68.054, 93.831 69.020, 91.914 70.046 C 90.767 70.660, 90.057 71.390, 90.336 71.669 C 91.182 72.516, 96.703 67.947, 97.835 65.463 C 98.746 63.463, 98.642 63.184, 97.094 63.482 C 95.639 63.762, 95.325 63.219, 95.460 60.664 C 95.552 58.924, 95.711 55.311, 95.814 52.637 C 95.998 47.833, 96.037 47.778, 99 48.213 C 100.650 48.455, 102 48.282, 102 47.827 C 102 47.372, 101.137 47, 100.082 47 C 99.027 47, 97.541 46.761, 96.780 46.469 C 96.018 46.177, 95.082 46.252, 94.698 46.636 M 186.500 47 L 183.500 47.763 186.750 47.882 C 188.537 47.947, 190.326 48.034, 190.725 48.075 C 191.124 48.116, 191.611 47.666, 191.808 47.075 C 192.206 45.882, 190.964 45.864, 186.500 47 M 106.392 48.726 C 107.394 49.728, 177.023 49.921, 179.500 48.928 C 180.600 48.487, 164.438 48.098, 143.583 48.063 C 122.729 48.029, 105.993 48.327, 106.392 48.726 M 64 52 C 64 52.733, 64.300 53.033, 64.667 52.667 C 65.033 52.300, 65.033 51.700, 64.667 51.333 C 64.300 50.967, 64 51.267, 64 52 M 64.333 54.667 C 64.700 55.033, 65.300 55.033, 65.667 54.667 C 66.033 54.300, 65.733 54, 65 54 C 64.267 54, 63.967 54.300, 64.333 54.667 M 164 54.992 L 155.500 55.627 166.668 55.814 C 172.811 55.916, 178.661 56.259, 179.668 56.576 C 181.134 57.036, 181.200 56.959, 180 56.190 C 177.596 54.650, 173.093 54.313, 164 54.992 M 105.998 55.750 C 105.996 56.163, 109.934 56.380, 114.748 56.232 C 130.282 55.757, 131.809 55.354, 118.750 55.175 C 111.737 55.079, 105.999 55.337, 105.998 55.750 M 65.702 57.333 C 65.421 58.067, 65.780 58.667, 66.500 58.667 C 67.220 58.667, 67.579 58.067, 67.298 57.333 C 67.016 56.600, 66.657 56, 66.500 56 C 66.343 56, 65.984 56.600, 65.702 57.333 M 55 57.711 C 55 58.285, 55.788 59.373, 56.750 60.128 C 58.369 61.397, 58.390 61.350, 57.033 59.500 C 56.226 58.400, 55.439 57.313, 55.283 57.083 C 55.127 56.854, 55 57.137, 55 57.711 M 101.354 58.465 C 100.204 59.270, 98.955 59.621, 98.579 59.245 C 98.202 58.869, 98.196 59.348, 98.565 60.310 C 99.102 61.708, 99.463 61.802, 100.368 60.779 C 100.991 60.076, 102.153 58.938, 102.950 58.250 C 104.938 56.536, 103.910 56.674, 101.354 58.465 M 131.754 63.773 C 132.392 72.573, 133 73.038, 133 64.726 C 133 61.091, 132.610 57.877, 132.133 57.582 C 131.656 57.288, 131.486 60.074, 131.754 63.773 M 67.333 60.667 C 67.700 61.033, 68.300 61.033, 68.667 60.667 C 69.033 60.300, 68.733 60, 68 60 C 67.267 60, 66.967 60.300, 67.333 60.667 M 187.666 62.698 C 188.019 63.689, 188.565 64.950, 188.878 65.500 C 189.487 66.570, 189.610 67.234, 189.848 70.750 C 189.931 71.987, 190.478 73, 191.062 73 C 192.385 73, 191.359 65.645, 189.969 65.167 C 189.436 64.983, 189 64.222, 189 63.476 C 189 62.729, 188.555 61.843, 188.011 61.507 C 187.423 61.143, 187.283 61.625, 187.666 62.698 M 51 67 C 51 67.733, 51.300 68.033, 51.667 67.667 C 52.033 67.300, 52.033 66.700, 51.667 66.333 C 51.300 65.967, 51 66.267, 51 67 M 104.750 68.662 C 105.438 68.940, 106.563 68.940, 107.250 68.662 C 107.938 68.385, 107.375 68.158, 106 68.158 C 104.625 68.158, 104.063 68.385, 104.750 68.662 M 49.658 70.449 C 49.286 71.418, 49.582 71.714, 50.551 71.342 C 52.133 70.735, 52.545 69, 51.107 69 C 50.616 69, 49.964 69.652, 49.658 70.449 M 117 69.831 C 117.825 70.341, 119.625 71.059, 121 71.427 C 122.737 71.892, 123.042 71.813, 122 71.169 C 121.175 70.659, 119.375 69.941, 118 69.573 C 116.263 69.108, 115.958 69.187, 117 69.831 M 73.264 72.861 C 73.351 74.009, 74.012 75.174, 74.734 75.451 C 75.782 75.853, 75.813 75.506, 74.888 73.727 C 73.257 70.593, 73.087 70.502, 73.264 72.861 M 125.593 74.323 C 126.642 75.761, 128.063 76.951, 128.750 76.969 C 130.588 77.015, 130.332 76.622, 126.843 74.042 L 123.687 71.709 125.593 74.323 M 85.333 73.667 C 85.700 74.033, 86.300 74.033, 86.667 73.667 C 87.033 73.300, 86.733 73, 86 73 C 85.267 73, 84.967 73.300, 85.333 73.667 M 131.731 74.920 C 131.296 76.583, 131.426 76.974, 132.168 76.232 C 132.750 75.650, 133.028 74.585, 132.788 73.863 C 132.538 73.114, 132.085 73.568, 131.731 74.920 M 80.405 77.233 C 79.238 78.601, 79.117 78.991, 80.092 78.241 C 80.968 77.568, 82.052 77.351, 82.502 77.759 C 82.952 78.166, 83.018 77.972, 82.648 77.326 C 82.265 76.656, 82.733 75.954, 83.738 75.692 C 85.157 75.322, 85.189 75.209, 83.905 75.116 C 83.028 75.052, 81.453 76.005, 80.405 77.233 M 46 78 C 46 78.733, 46.300 79.033, 46.667 78.667 C 47.033 78.300, 47.033 77.700, 46.667 77.333 C 46.300 76.967, 46 77.267, 46 78 M 75 77.882 C 75 78.432, 75.450 79.160, 76 79.500 C 76.550 79.840, 77 79.668, 77 79.118 C 77 78.568, 76.550 77.840, 76 77.500 C 75.450 77.160, 75 77.332, 75 77.882 M 45 81.059 C 45 81.641, 45.450 81.840, 46 81.500 C 46.550 81.160, 47 80.684, 47 80.441 C 47 80.198, 46.550 80, 46 80 C 45.450 80, 45 80.477, 45 81.059 M 99.333 82.667 C 99.700 83.033, 100.300 83.033, 100.667 82.667 C 101.033 82.300, 100.733 82, 100 82 C 99.267 82, 98.967 82.300, 99.333 82.667 M 109.333 82.667 C 109.700 83.033, 110.300 83.033, 110.667 82.667 C 111.033 82.300, 110.733 82, 110 82 C 109.267 82, 108.967 82.300, 109.333 82.667 M 52 85.500 C 52 86.325, 52.112 87.132, 52.250 87.294 C 52.388 87.456, 51.686 88.918, 50.691 90.544 L 48.881 93.500 50.941 91.139 C 52.750 89.065, 53.856 84, 52.500 84 C 52.225 84, 52 84.675, 52 85.500 M 92.500 85 C 92.840 85.550, 93.343 86, 93.618 86 C 93.893 86, 93.840 85.550, 93.500 85 C 93.160 84.450, 92.657 84, 92.382 84 C 92.107 84, 92.160 84.450, 92.500 85 M 41.141 90.250 C 39.972 93.138, 39.619 94.719, 40.356 93.766 C 41.094 92.812, 41.916 92.249, 42.182 92.516 C 42.449 92.782, 42.685 92.438, 42.708 91.750 C 42.730 91.063, 43.079 89.263, 43.483 87.750 C 44.679 83.270, 43.426 84.607, 41.141 90.250 M 89.702 88.667 C 89.984 89.400, 90.343 90, 90.500 90 C 90.657 90, 91.016 89.400, 91.298 88.667 C 91.579 87.933, 91.220 87.333, 90.500 87.333 C 89.780 87.333, 89.421 87.933, 89.702 88.667 M 154.272 91 C 154.272 93.475, 154.467 94.487, 154.706 93.250 C 154.944 92.013, 154.944 89.987, 154.706 88.750 C 154.467 87.513, 154.272 88.525, 154.272 91 M 118.564 89.293 C 118.940 90.279, 119.499 90.834, 119.807 90.526 C 120.115 90.219, 119.808 89.412, 119.124 88.733 C 118.136 87.753, 118.022 87.868, 118.564 89.293 M 58.141 92.363 C 58.847 93.938, 59.606 94.682, 59.828 94.015 C 60.050 93.349, 59.473 92.060, 58.545 91.152 C 56.966 89.606, 56.940 89.683, 58.141 92.363 M 126.612 91.721 C 126.291 92.043, 124.672 92.267, 123.014 92.219 C 121.356 92.172, 120 92.554, 120 93.067 C 120 94.561, 126.027 94.523, 127 93.023 C 127.275 92.599, 128.458 92.611, 129.629 93.049 C 131.656 93.808, 131.752 94.449, 131.629 106.423 C 131.558 113.341, 131.838 119, 132.250 119 C 133.610 119, 133.131 94.346, 131.750 93.278 C 129.905 91.850, 127.279 91.055, 126.612 91.721 M 48.500 95 C 48.840 95.550, 49.343 96, 49.618 96 C 49.893 96, 49.840 95.550, 49.500 95 C 49.160 94.450, 48.657 94, 48.382 94 C 48.107 94, 48.160 94.450, 48.500 95 M 87.134 94.896 C 86.051 95.582, 86.015 96.150, 86.959 97.631 C 87.813 98.970, 88.010 99.038, 87.654 97.872 C 87.380 96.976, 87.661 95.739, 88.278 95.122 C 89.607 93.793, 89.049 93.683, 87.134 94.896 M 46.500 100 C 46.840 100.550, 47.316 101, 47.559 101 C 47.802 101, 48 100.550, 48 100 C 48 99.450, 47.523 99, 46.941 99 C 46.359 99, 46.160 99.450, 46.500 100 M 61 100 C 61 100.550, 61.477 101, 62.059 101 C 62.641 101, 62.840 100.550, 62.500 100 C 62.160 99.450, 61.684 99, 61.441 99 C 61.198 99, 61 99.450, 61 100 M 36 101 C 36 101.733, 36.300 102.033, 36.667 101.667 C 37.033 101.300, 37.033 100.700, 36.667 100.333 C 36.300 99.967, 36 100.267, 36 101 M 87 102 C 87 102.733, 87.300 103.033, 87.667 102.667 C 88.033 102.300, 88.033 101.700, 87.667 101.333 C 87.300 100.967, 87 101.267, 87 102 M 45.500 102.765 C 44.950 103.169, 44.399 104.625, 44.275 106 C 44.151 107.389, 44.322 107.833, 44.661 107 C 44.996 106.175, 45.675 104.713, 46.170 103.750 C 47.153 101.840, 47.022 101.647, 45.500 102.765 M 62.732 104.085 C 63.130 105.604, 63.493 105.821, 64.073 104.882 C 64.933 103.490, 64.397 102, 63.035 102 C 62.569 102, 62.433 102.938, 62.732 104.085 M 34.161 105.547 C 32.645 108.873, 32.697 109.358, 34.399 107.789 C 35.169 107.080, 35.623 106.316, 35.408 106.092 C 35.193 105.868, 35.519 105.080, 36.131 104.342 C 36.757 103.588, 36.823 103, 36.283 103 C 35.754 103, 34.799 104.146, 34.161 105.547 M 154 104 C 154 104.733, 154.300 105.033, 154.667 104.667 C 155.033 104.300, 155.033 103.700, 154.667 103.333 C 154.300 102.967, 154 103.267, 154 104 M 88 105.211 C 88 106.060, 88.749 107.373, 89.664 108.128 C 91.186 109.383, 91.217 109.287, 90.028 107 C 88.286 103.648, 88 103.395, 88 105.211 M 65.645 111.472 C 67.090 115.713, 69 118.358, 69 116.118 C 69 115.568, 68.585 114.861, 68.077 114.548 C 67.569 114.234, 66.860 112.637, 66.500 111 C 66.140 109.363, 65.454 107.781, 64.974 107.484 C 64.495 107.188, 64.797 108.982, 65.645 111.472 M 42.345 110.543 C 42.019 111.392, 41.976 112.310, 42.249 112.583 C 42.523 112.856, 42.986 112.161, 43.279 111.040 C 43.903 108.657, 43.210 108.289, 42.345 110.543 M 30.564 113.707 C 30.022 115.132, 30.136 115.247, 31.124 114.267 C 31.808 113.588, 32.115 112.781, 31.807 112.474 C 31.499 112.166, 30.940 112.721, 30.564 113.707 M 94 117.941 C 94 118.459, 94.445 119.157, 94.989 119.493 C 95.555 119.843, 95.723 119.442, 95.382 118.552 C 94.717 116.820, 94 116.503, 94 117.941 M 40.733 119.124 C 41.412 119.808, 42.219 120.115, 42.526 119.807 C 42.834 119.499, 42.279 118.940, 41.293 118.564 C 39.868 118.022, 39.753 118.136, 40.733 119.124 M 121 119 C 121 119.550, 122.152 120, 123.559 120 C 125.010 120, 125.851 119.567, 125.500 119 C 125.160 118.450, 124.009 118, 122.941 118 C 121.873 118, 121 118.450, 121 119 M 50.287 119.740 C 53.469 119.939, 58.419 119.937, 61.287 119.736 C 64.154 119.535, 61.550 119.372, 55.500 119.374 C 49.450 119.376, 47.104 119.541, 50.287 119.740 M 154.286 124.500 C 154.294 127.250, 154.488 128.256, 154.718 126.736 C 154.947 125.216, 154.941 122.966, 154.704 121.736 C 154.467 120.506, 154.279 121.750, 154.286 124.500 M 119.651 122.468 C 119.341 123.275, 119.518 124.202, 120.044 124.527 C 120.570 124.852, 121 124.903, 121 124.641 C 121 124.378, 121.273 123.452, 121.607 122.582 C 121.941 121.712, 121.764 121, 121.214 121 C 120.664 121, 119.960 121.661, 119.651 122.468 M 95.405 123.155 C 94.962 123.870, 95.130 124.038, 95.845 123.595 C 96.480 123.203, 97 122.684, 97 122.441 C 97 121.607, 96.117 122.002, 95.405 123.155 M 26.500 124 C 26.840 124.550, 27.343 125, 27.618 125 C 27.893 125, 27.840 124.550, 27.500 124 C 27.160 123.450, 26.657 123, 26.382 123 C 26.107 123, 26.160 123.450, 26.500 124 M 45.499 125.002 C 45.290 125.340, 46.892 125.721, 49.060 125.849 C 51.227 125.976, 53 125.887, 53 125.650 C 53 124.946, 45.912 124.333, 45.499 125.002 M 63.500 125.073 L 57.500 125.664 64.200 125.832 C 69.422 125.963, 71.118 126.386, 71.888 127.750 C 72.660 129.117, 73.110 129.229, 73.946 128.258 C 74.535 127.575, 74.709 127.242, 74.333 127.517 C 73.956 127.793, 72.715 127.223, 71.574 126.250 C 69.889 124.813, 68.374 124.592, 63.500 125.073 M 25 126 C 25 126.733, 25.300 127.033, 25.667 126.667 C 26.033 126.300, 26.033 125.700, 25.667 125.333 C 25.300 124.967, 25 125.267, 25 126 M 114.461 130.043 C 112.942 131.721, 112.901 131.975, 114.229 131.466 C 115.118 131.125, 116.091 130.205, 116.391 129.423 C 117.138 127.476, 116.639 127.636, 114.461 130.043 M 99.033 130.691 C 99.015 131.346, 99.457 132.165, 100.016 132.510 C 100.575 132.856, 100.831 133.464, 100.586 133.862 C 100.340 134.259, 101.007 134.650, 102.069 134.730 C 103.131 134.810, 104 134.379, 104 133.771 C 104 133.164, 103.719 132.948, 103.376 133.291 C 103.033 133.634, 101.923 132.922, 100.909 131.707 C 99.896 130.493, 99.052 130.036, 99.033 130.691 M 74 133 C 74 133.733, 74.300 134.033, 74.667 133.667 C 75.033 133.300, 75.033 132.700, 74.667 132.333 C 74.300 131.967, 74 132.267, 74 133 M 110.333 132.667 C 110.700 133.033, 111.300 133.033, 111.667 132.667 C 112.033 132.300, 111.733 132, 111 132 C 110.267 132, 109.967 132.300, 110.333 132.667 M 106 134 C 104.707 134.835, 104.734 134.971, 106.191 134.985 C 107.121 134.993, 108.160 134.550, 108.500 134 C 109.282 132.734, 107.958 132.734, 106 134 M 32 136 C 32 136.733, 32.300 137.033, 32.667 136.667 C 33.033 136.300, 33.033 135.700, 32.667 135.333 C 32.300 134.967, 32 135.267, 32 136 M 131.359 140.105 C 132.149 144.320, 129.553 149.946, 126 151.721 C 124.625 152.408, 123.950 153.064, 124.500 153.179 C 125.050 153.294, 121 153.663, 115.500 154 L 105.500 154.613 117.941 154.806 C 128.550 154.971, 130.113 154.803, 128.551 153.661 C 126.865 152.428, 126.854 152.270, 128.405 151.675 C 131.832 150.360, 134.565 139.085, 131.862 137.414 C 131.053 136.915, 130.907 137.694, 131.359 140.105 M 30.459 139.067 C 30.096 139.653, 30.014 140.348, 30.276 140.610 C 30.538 140.872, 31.019 140.392, 31.345 139.543 C 32.021 137.781, 31.445 137.471, 30.459 139.067 M 77.446 141.311 C 79.851 147.239, 80.013 147.506, 79.380 144.500 C 79.033 142.850, 78.730 140.957, 78.708 140.293 C 78.685 139.629, 78.101 138.869, 77.410 138.604 C 76.413 138.221, 76.421 138.782, 77.446 141.311 M 127 139 C 127 139.550, 126.433 140, 125.741 140 C 125.048 140, 123.882 140.960, 123.149 142.133 L 121.816 144.267 124.908 142.065 C 127.614 140.139, 128.977 138, 127.500 138 C 127.225 138, 127 138.450, 127 139 M 16.964 144.164 C 15.819 146.397, 15.846 146.424, 17.574 144.774 C 18.568 143.824, 19.107 142.773, 18.771 142.438 C 18.436 142.103, 17.623 142.880, 16.964 144.164 M 28.026 144.431 C 26.533 148.359, 27.692 151.700, 30.837 152.528 C 33.305 153.178, 33.353 153.289, 31.500 154.044 C 29.854 154.715, 30.075 154.872, 32.750 154.930 C 36.581 155.013, 37.079 153.488, 33.513 152.593 C 29.875 151.680, 27.539 147.730, 29.010 144.981 C 29.644 143.797, 29.913 142.580, 29.609 142.276 C 29.305 141.971, 28.593 142.941, 28.026 144.431 M 118.557 144.582 C 117.491 145.362, 117.041 145.993, 117.559 145.985 C 118.941 145.962, 121.520 144.186, 120.969 143.636 C 120.710 143.376, 119.624 143.802, 118.557 144.582 M 113.813 146.683 C 114.534 146.972, 115.397 146.936, 115.729 146.604 C 116.061 146.272, 115.471 146.036, 114.417 146.079 C 113.252 146.127, 113.015 146.364, 113.813 146.683 M 12.746 149.487 C 11.231 150.820, 8.419 152.206, 6.496 152.567 C 1.623 153.481, 2.121 155.021, 7.250 154.900 C 10.860 154.816, 11.124 154.680, 9 154 L 6.500 153.199 9 153.068 C 11.226 152.951, 16.582 150, 14.569 150 C 14.121 150, 14.315 149.325, 15 148.500 C 16.815 146.313, 15.894 146.716, 12.746 149.487 M 77.703 150.531 C 76.715 151.889, 75.054 153, 74.012 153 C 72.970 153, 71.840 153.450, 71.500 154 C 71.111 154.629, 73.038 154.944, 76.691 154.850 C 79.886 154.768, 81.236 154.510, 79.691 154.278 C 78.077 154.035, 77.066 153.355, 77.316 152.678 C 77.555 152.030, 78.256 151.613, 78.875 151.750 C 79.494 151.887, 80 151.100, 80 150 C 80 147.494, 79.897 147.518, 77.703 150.531 M 156 149.465 C 156 150.270, 157.002 151.466, 158.228 152.122 C 160.392 153.280, 160.399 153.336, 158.478 154.087 C 157.134 154.612, 158.183 154.882, 161.750 154.930 C 164.982 154.973, 167 154.572, 167 153.887 C 167 153.223, 165.810 152.948, 164.053 153.206 C 162.432 153.443, 161.333 153.270, 161.612 152.819 C 161.890 152.369, 161.641 152, 161.059 152 C 160.477 152, 159.100 151.100, 158 150 C 156.487 148.487, 156 148.357, 156 149.465 M 113.768 152.168 C 114.350 152.750, 115.415 153.028, 116.137 152.788 C 116.886 152.538, 116.432 152.085, 115.080 151.731 C 113.417 151.296, 113.026 151.426, 113.768 152.168 M 15.750 154.732 C 18.087 154.943, 21.912 154.943, 24.250 154.732 C 26.587 154.522, 24.675 154.349, 20 154.349 C 15.325 154.349, 13.412 154.522, 15.750 154.732 M 87.750 154.737 C 90.638 154.939, 95.362 154.939, 98.250 154.737 C 101.138 154.535, 98.775 154.370, 93 154.370 C 87.225 154.370, 84.862 154.535, 87.750 154.737 M 132.750 154.706 C 133.988 154.944, 136.012 154.944, 137.250 154.706 C 138.488 154.467, 137.475 154.272, 135 154.272 C 132.525 154.272, 131.512 154.467, 132.750 154.706 M 151.250 154.689 C 152.213 154.941, 153.787 154.941, 154.750 154.689 C 155.713 154.438, 154.925 154.232, 153 154.232 C 151.075 154.232, 150.287 154.438, 151.250 154.689" stroke="none" fill="#349faf" fill-rule="evenodd"/><path d="M 60.287 48.160 C 59.677 48.897, 58.412 51.418, 57.476 53.761 C 56.053 57.324, 55.989 58.308, 57.089 59.761 C 58.198 61.228, 58.188 61.308, 57.026 60.274 C 55.906 59.278, 55.294 59.631, 53.753 62.165 C 52.711 63.879, 51.822 66.568, 51.777 68.141 C 51.732 69.713, 51.326 71, 50.874 71 C 49.904 71, 47.134 76.111, 46.703 78.697 C 46.538 79.689, 45.915 81.400, 45.319 82.500 C 44.103 84.748, 42.505 91.063, 42.834 92.324 C 42.953 92.778, 42.661 92.909, 42.186 92.615 C 41.222 92.019, 37.194 98.667, 36.736 101.609 C 36.575 102.649, 36.091 104.063, 35.662 104.750 C 35.233 105.438, 35.246 106.007, 35.691 106.015 C 36.136 106.024, 35.991 106.361, 35.368 106.765 C 33.400 108.043, 26.789 122.845, 27.577 124.211 C 27.986 124.920, 27.953 125.167, 27.503 124.759 C 26.487 123.839, 18.417 140.215, 18.861 142.296 C 18.954 142.734, 17.846 144.647, 16.397 146.546 C 14.948 148.446, 14.127 150, 14.572 150 C 15.018 150, 14.509 150.661, 13.441 151.468 C 12.374 152.276, 10.412 152.951, 9.083 152.968 C 7.754 152.986, 6.914 153.247, 7.215 153.549 C 7.952 154.285, 31.932 154.401, 32.662 153.672 C 32.977 153.356, 32.097 152.811, 30.705 152.462 C 26.170 151.324, 26.429 147.941, 31.934 136.444 L 36.935 126 40.908 126 C 43.094 126, 45.124 125.609, 45.419 125.130 C 45.715 124.652, 47.689 124.577, 49.805 124.964 C 51.921 125.351, 54.744 125.588, 56.077 125.490 C 68.203 124.599, 70.005 124.695, 71.802 126.321 C 72.825 127.247, 73.967 127.782, 74.339 127.511 C 74.712 127.239, 74.619 127.497, 74.133 128.083 C 73.213 129.195, 75.926 137.639, 77.590 138.842 C 78.723 139.661, 79.125 141.224, 79.761 147.294 C 80.131 150.828, 79.933 152.010, 79.006 151.794 C 78.315 151.632, 77.544 152.063, 77.292 152.750 C 76.763 154.191, 75.236 154.114, 103.401 154.067 C 114.896 154.047, 124.534 153.800, 124.818 153.516 C 125.101 153.232, 122.896 152.999, 119.917 152.999 C 115.659 152.998, 113.910 152.490, 111.740 150.624 L 108.981 148.251 112.240 147.034 C 114.033 146.365, 116.625 145.328, 118 144.730 C 119.375 144.132, 120.874 143.611, 121.331 143.571 C 121.787 143.532, 122.737 142.713, 123.441 141.750 C 124.145 140.787, 125.233 140, 125.860 140 C 126.487 140, 127 139.625, 127 139.167 C 127 138.708, 127.563 138.316, 128.250 138.294 C 128.938 138.272, 130.148 138.085, 130.941 137.877 C 134.324 136.991, 133.191 146.899, 129.486 150.605 C 127.349 152.742, 127.279 153.064, 128.803 153.749 C 130.182 154.369, 150.415 154.596, 158.500 154.083 C 160.388 153.963, 160.368 153.854, 158.147 152.146 C 156.119 150.586, 155.703 149.155, 155.129 141.772 C 154.254 130.525, 154.792 56.808, 155.755 55.845 C 156.166 55.434, 161.226 54.997, 167.001 54.873 C 175.116 54.699, 178.209 55.019, 180.623 56.284 C 182.341 57.184, 184.101 57.601, 184.534 57.210 C 184.966 56.820, 185.009 57.043, 184.628 57.706 C 184.222 58.414, 184.982 59.597, 186.468 60.571 C 187.861 61.483, 189 62.853, 189 63.615 C 189 64.377, 189.417 65, 189.927 65 C 190.436 65, 191.059 65.787, 191.311 66.750 C 191.562 67.713, 191.820 63.915, 191.884 58.312 L 192 48.123 185.250 48.601 C 175.432 49.296, 107.680 49.712, 106.500 49.084 C 105.950 48.791, 103.362 48.418, 100.750 48.256 L 96 47.960 95.814 52.730 C 95.711 55.354, 95.552 58.913, 95.460 60.640 C 95.333 63.014, 95.683 63.719, 96.896 63.528 C 97.803 63.386, 98.468 62.373, 98.427 61.197 C 98.387 60.054, 98.612 59.150, 98.927 59.189 C 100.146 59.341, 106 56.520, 106 55.781 C 106 55.351, 111.549 55, 118.331 55 C 133.276 55, 133.282 55.006, 132.808 68.042 C 132.521 75.931, 132.349 76.521, 130.261 76.818 C 128.876 77.015, 127.158 76.208, 125.761 74.704 C 122.384 71.071, 114.683 68.703, 105.077 68.342 C 98.331 68.089, 96.093 68.375, 94.056 69.753 C 92.650 70.705, 90.619 71.542, 89.542 71.615 C 88.465 71.687, 87.415 72.254, 87.209 72.873 C 87.002 73.493, 86.169 74, 85.358 74 C 84.546 74, 84.160 74.450, 84.500 75 C 84.840 75.550, 84.558 76, 83.873 76 C 83.189 76, 81.610 76.957, 80.365 78.127 C 77.858 80.482, 74.397 80.015, 75.379 77.454 C 75.702 76.613, 75.394 75.705, 74.694 75.436 C 73.994 75.168, 73.358 74.103, 73.280 73.071 C 73.073 70.321, 68.901 61, 67.877 61 C 67.395 61, 67.112 60.438, 67.250 59.750 C 67.388 59.063, 66.984 58.597, 66.353 58.716 C 65.673 58.844, 65.415 58.131, 65.719 56.966 C 66.004 55.878, 65.734 55, 65.117 55 C 64.502 55, 64.053 54.663, 64.118 54.250 C 64.420 52.339, 63.890 50.232, 62.697 48.601 C 61.626 47.136, 61.198 47.058, 60.287 48.160 M 96.726 83.584 C 95.201 84.412, 93.518 84.820, 92.988 84.492 C 92.447 84.158, 92.285 84.579, 92.618 85.448 C 93.134 86.792, 92.295 87.355, 90 87.204 C 89.725 87.186, 89.448 88.557, 89.385 90.250 C 89.322 91.944, 88.535 93.867, 87.635 94.525 C 86.038 95.692, 85.263 97.565, 86.750 96.663 C 87.162 96.412, 87.544 98.298, 87.598 100.854 C 87.667 104.121, 88.483 106.654, 90.348 109.390 C 91.807 111.529, 93.003 113.779, 93.006 114.390 C 93.010 115, 93.701 116.820, 94.542 118.434 C 95.384 120.048, 95.836 121.984, 95.548 122.736 C 95.259 123.488, 95.416 123.861, 95.895 123.565 C 96.811 122.999, 99.674 128.878, 99.203 130.355 C 99.053 130.826, 99.392 131.767, 99.956 132.447 C 100.521 133.127, 100.649 134.078, 100.241 134.559 C 99.834 135.040, 100.374 134.774, 101.442 133.967 C 102.510 133.160, 103.070 133.023, 102.687 133.663 C 101.682 135.340, 106.609 134.794, 111.535 132.684 C 114.133 131.571, 116.231 129.727, 117.427 127.506 C 118.448 125.609, 119.623 124.267, 120.037 124.523 C 121.008 125.123, 122.183 122.105, 121.444 120.910 C 121.135 120.409, 122.146 119.936, 123.691 119.858 C 126.666 119.709, 129.666 119.454, 131.780 119.171 C 132.760 119.040, 132.994 116.025, 132.780 106.278 C 132.509 93.974, 132.421 93.516, 130.099 92.360 C 128.752 91.690, 126.775 91.488, 125.599 91.901 C 122.881 92.855, 120 92.193, 120 90.614 C 120 89.245, 115.749 85.198, 112.264 83.250 C 109.218 81.548, 100.121 81.743, 96.726 83.584 M 52.015 85.250 C 52.007 86.213, 52.112 87.132, 52.250 87.294 C 52.388 87.456, 51.666 88.861, 50.646 90.417 C 49.627 91.973, 49.284 92.942, 49.885 92.571 C 50.567 92.150, 50.754 92.477, 50.384 93.442 C 50.057 94.293, 49.393 94.743, 48.907 94.442 C 48.421 94.142, 48.269 94.536, 48.569 95.319 C 48.869 96.102, 48.436 97.422, 47.605 98.252 C 46.775 99.082, 46.411 100.077, 46.796 100.463 C 47.181 100.848, 46.823 101.689, 45.998 102.332 C 45.174 102.974, 44.344 104.625, 44.152 106 C 43.961 107.375, 43.461 108.950, 43.040 109.500 C 42.179 110.626, 40.705 115.721, 40.582 118 C 40.515 119.232, 42.531 119.558, 51.876 119.827 C 58.132 120.007, 64.270 119.898, 65.515 119.586 C 68.224 118.906, 69.320 116.565, 68.032 114.210 C 65.539 109.651, 63.881 105.002, 64.431 104.112 C 64.767 103.568, 64.245 102.659, 63.271 102.092 C 62.297 101.525, 61.863 101.047, 62.307 101.030 C 62.750 101.014, 62.413 100, 61.557 98.777 C 60.701 97.555, 60 95.775, 60 94.822 C 60 92.896, 55.175 85.307, 54.287 85.835 C 53.977 86.020, 53.343 85.570, 52.877 84.835 C 52.228 83.812, 52.027 83.908, 52.015 85.250" stroke="none" fill="#0896b0" fill-rule="evenodd"/></svg>